<?xml version="1.0" encoding="UTF-8" standalone="no"?>
<svg
   id="svg1"
   sodipodi:docname="bank.svg"
   viewBox="0 0 48 48"
   sodipodi:version="0.32"
   _SVGFile__filename="oldscale/mimetypes/money.svg"
   version="1.0"
   y="0"
   x="0"
   inkscape:version="1.2.1 (9c6d41e410, 2022-07-14)"
   width="48"
   height="48"
   xmlns:inkscape="http://www.inkscape.org/namespaces/inkscape"
   xmlns:sodipodi="http://sodipodi.sourceforge.net/DTD/sodipodi-0.dtd"
   xmlns="http://www.w3.org/2000/svg"
   xmlns:svg="http://www.w3.org/2000/svg"
   xmlns:rdf="http://www.w3.org/1999/02/22-rdf-syntax-ns#"
   xmlns:cc="http://creativecommons.org/ns#"
   xmlns:dc="http://purl.org/dc/elements/1.1/">
  <defs
     id="defs9">
    <linearGradient
       id="linearGradient946"
       inkscape:swatch="solid">
      <stop
         style="stop-color:#000000;stop-opacity:1;"
         offset="0"
         id="stop944" />
    </linearGradient>
  </defs>
  <sodipodi:namedview
     id="base"
     bordercolor="#666666"
     inkscape:pageshadow="2"
     inkscape:window-y="-8"
     pagecolor="#ffffff"
     inkscape:window-height="1009"
     inkscape:zoom="13.893067"
     inkscape:window-x="-8"
     borderopacity="1.0"
     inkscape:current-layer="svg1"
     inkscape:cx="31.418549"
     inkscape:cy="26.631988"
     inkscape:window-width="1920"
     inkscape:pageopacity="0.0"
     inkscape:pagecheckerboard="0"
     showgrid="false"
     inkscape:window-maximized="1"
     fit-margin-top="0"
     fit-margin-left="0"
     fit-margin-right="0"
     fit-margin-bottom="0"
     inkscape:showpageshadow="0"
     inkscape:deskcolor="#d1d1d1" />
  <path
     id="path828"
     style="fill:#000000;fill-opacity:1;stroke:none;stroke-width:1.89629;stroke-miterlimit:4;stroke-dasharray:none;stroke-opacity:1"
     d="m 22.718159,42.141618 v -1.932316 c -1.371963,-0.09861 -2.773317,-0.287287 -4.202168,-0.567937 -1.427903,-0.279702 -2.709791,-0.784114 -3.844718,-1.512288 -1.119756,-0.742395 -1.680109,-1.72941 -1.680109,-2.961996 0,-0.924439 0.293925,-1.757856 0.881773,-2.500253 0.603019,-0.742395 1.337829,-1.114066 2.206328,-1.114066 0.378309,0 1.057179,0.210487 2.037558,0.630515 0.981328,0.420027 1.779664,0.735758 2.395956,0.945298 0.629567,0.210487 1.365325,0.315731 2.20538,0.315731 V 26.69922 C 20.925221,26.153089 19.419571,25.5861 18.201208,24.998252 16.982845,24.395233 15.99488,23.737223 15.23921,23.023271 14.482593,22.294149 13.936463,21.510035 13.599872,20.669982 13.277504,19.82898 13.117267,18.897904 13.117267,17.875806 c 0,-1.428852 0.252206,-2.731599 0.75567,-3.908244 0.504412,-1.190867 1.190867,-2.212964 2.059366,-3.067241 0.88272,-0.868498 1.911455,-1.5615905 3.0881,-2.0802249 1.176645,-0.5186339 2.40923,-0.8267803 3.697756,-0.9244389 V 5.8580989 c 0,-0.8547505 0.427612,-1.2819836 1.281888,-1.2819836 0.868499,0 1.302748,0.4272331 1.302748,1.2819836 v 2.0375583 c 1.050542,0.028444 2.163661,0.1886803 3.340306,0.4835526 1.190867,0.2797021 2.198743,0.7556697 3.025523,1.4288507 0.82678,0.6722335 1.239222,1.5682275 1.239222,2.6889315 0,0.54613 -0.126102,1.078038 -0.37736,1.596672 -0.238932,0.504412 -0.581212,0.910217 -1.029683,1.218365 -0.434249,0.308146 -0.924439,0.462693 -1.470569,0.462693 -0.336591,0 -0.742396,-0.105244 -1.219311,-0.315731 -0.461746,-0.20954 -0.881773,-0.412442 -1.260082,-0.608708 -0.378309,-0.210488 -0.749032,-0.378309 -1.114067,-0.504412 -0.364087,-0.140325 -0.741448,-0.210487 -1.133979,-0.210487 v 6.156288 c 2.926916,0.798336 5.273569,1.925679 7.038062,3.382973 1.778716,1.456348 2.668073,3.549846 2.668073,6.281444 0,1.625117 -0.300561,3.074826 -0.902631,4.34913 -0.588797,1.261029 -1.366274,2.318208 -2.332431,3.172486 -0.952883,0.840054 -1.99584,1.484791 -3.130767,1.933261 -1.133978,0.447523 -2.248046,0.713952 -3.340306,0.798336 v 1.932316 c 0,0.855224 -0.434249,1.281888 -1.302748,1.281888 -0.854276,0 -1.281888,-0.426664 -1.281888,-1.281888 z m 0,-22.627422 v -5.378812 c -0.699729,0.154547 -1.274304,0.483552 -1.722775,0.987964 -0.43425,0.49019 -0.651374,1.120705 -0.651374,1.890596 0,0.644737 0.217124,1.176645 0.651374,1.596672 0.448471,0.420028 1.023046,0.721537 1.722775,0.90358 z m 2.584636,7.858205 v 6.071905 c 0.686455,0 1.267667,-0.301509 1.743634,-0.90358 0.49019,-0.603018 0.735759,-1.288525 0.735759,-2.059365 0,-0.882721 -0.210488,-1.554954 -0.630515,-2.016699 -0.406753,-0.475968 -1.023046,-0.841003 -1.848878,-1.092261 z M 1.8918288,3.795e-4 C 0.843752,3.795e-4 0,0.8501048 0,1.9056719 V 46.094802 c 0,1.055284 0.843752,1.904818 1.8918288,1.904818 H 46.107508 C 47.156153,47.99962 48,47.150086 48,46.094802 V 1.9056719 C 48,0.8504841 47.156153,7.588e-4 46.107508,7.588e-4 H 1.8918288 Z" />
  <metadata
     id="metadata6">
    <rdf:RDF>
      <cc:Work>
        <dc:format>image/svg+xml</dc:format>
        <dc:type
           rdf:resource="http://purl.org/dc/dcmitype/StillImage" />
        <cc:license
           rdf:resource="http://creativecommons.org/publicdomain/zero/1.0/" />
        <dc:publisher>
          <cc:Agent
             rdf:about="http://openclipart.org/">
            <dc:title>Openclipart</dc:title>
          </cc:Agent>
        </dc:publisher>
      </cc:Work>
      <cc:License
         rdf:about="http://creativecommons.org/publicdomain/zero/1.0/">
        <cc:permits
           rdf:resource="http://creativecommons.org/ns#Reproduction" />
        <cc:permits
           rdf:resource="http://creativecommons.org/ns#Distribution" />
        <cc:permits
           rdf:resource="http://creativecommons.org/ns#DerivativeWorks" />
      </cc:License>
    </rdf:RDF>
  </metadata>
</svg>
