<?xml version="1.0" encoding="UTF-8" standalone="no"?>
<!-- Generator: Adobe Illustrator 18.0.0, SVG Export Plug-In . SVG Version: 6.00 Build 0)  -->

<svg
   version="1.1"
   id="Capa_1"
   x="0px"
   y="0px"
   viewBox="0 0 29.642868 47.999999"
   xml:space="preserve"
   sodipodi:docname="bar.svg"
   width="29.642868"
   height="48"
   inkscape:version="1.2.1 (9c6d41e410, 2022-07-14)"
   xmlns:inkscape="http://www.inkscape.org/namespaces/inkscape"
   xmlns:sodipodi="http://sodipodi.sourceforge.net/DTD/sodipodi-0.dtd"
   xmlns="http://www.w3.org/2000/svg"
   xmlns:svg="http://www.w3.org/2000/svg"><defs
   id="defs36" /><sodipodi:namedview
   id="namedview34"
   pagecolor="#505050"
   bordercolor="#eeeeee"
   borderopacity="1"
   inkscape:pageshadow="0"
   inkscape:pageopacity="0"
   inkscape:pagecheckerboard="0"
   showgrid="false"
   fit-margin-top="0"
   fit-margin-left="0"
   fit-margin-right="0"
   fit-margin-bottom="0"
   inkscape:zoom="1.6071684"
   inkscape:cx="44.488182"
   inkscape:cy="248.26272"
   inkscape:window-width="1920"
   inkscape:window-height="1009"
   inkscape:window-x="-8"
   inkscape:window-y="-8"
   inkscape:window-maximized="1"
   inkscape:current-layer="Capa_1"
   inkscape:showpageshadow="0"
   inkscape:deskcolor="#505050" />
<path
   id="oversized-wine-glass-2"
   style="fill:#000100;stroke-width:0.0969147"
   d="M 16.414886,41.972779 V 25.550683 c 7.728946,-0.885121 13.227982,-7.356599 13.227982,-14.738784 0,-2.7906585 -0.77493,-6.2616578 -2.117973,-9.6265355 C 27.239578,0.46974546 26.545862,0 25.775778,0 H 3.854646 C 3.084078,0 2.390459,0.46974546 2.105433,1.1854604 0.89283704,4.2236387 -0.04927076,7.8049269 0.00199704,11.109621 v 0 c 0,0.0031 8.723e-4,0.0062 8.723e-4,0.0092 C 0.15211794,18.399543 5.605895,24.700742 13.21457,25.550683 V 41.972779 C 8.177041,42.385054 4.315573,44.624171 4.315573,45.749932 4.315573,46.993735 9.016032,48 14.815406,48 c 5.799278,0 10.500221,-1.006265 10.500221,-2.250068 0,-1.125761 -3.862728,-3.365362 -8.900741,-3.777153 z M 4.760023,3.2002197 h 20.109991 c 1.004133,2.7383243 1.572634,5.472772 1.572634,7.6117763 0,0.519365 -0.04613,1.028264 -0.112421,1.530476 -1.000547,-0.249361 -2.037631,-0.282312 -3.150115,0.113681 -2.905211,1.034371 -4.788651,1.696879 -7.744355,0.53778 C 12.49682,11.840551 10.639644,6.6014404 7.115438,7.0000505 5.715311,7.1576337 4.514054,7.6181723 3.429676,8.2579061 3.681266,6.6704436 4.12029,4.9453623 4.760023,3.2002197 Z" />















</svg>
