<?xml version="1.0" encoding="UTF-8" standalone="no"?>
<!-- Svg Vector Icons : http://www.onlinewebfonts.com/icon -->

<svg
   version="1.1"
   x="0px"
   y="0px"
   viewBox="0 0 45.410797 48"
   enable-background="new 0 0 1000 1000"
   xml:space="preserve"
   id="svg8"
   sodipodi:docname="cafe.svg"
   width="45.410797"
   height="48"
   inkscape:version="1.2.1 (9c6d41e410, 2022-07-14)"
   xmlns:inkscape="http://www.inkscape.org/namespaces/inkscape"
   xmlns:sodipodi="http://sodipodi.sourceforge.net/DTD/sodipodi-0.dtd"
   xmlns="http://www.w3.org/2000/svg"
   xmlns:svg="http://www.w3.org/2000/svg"><defs
   id="defs12" /><sodipodi:namedview
   id="namedview10"
   pagecolor="#505050"
   bordercolor="#eeeeee"
   borderopacity="1"
   inkscape:pageshadow="0"
   inkscape:pageopacity="0"
   inkscape:pagecheckerboard="0"
   showgrid="false"
   fit-margin-top="0"
   fit-margin-left="0"
   fit-margin-right="0"
   fit-margin-bottom="0"
   inkscape:zoom="9.0057119"
   inkscape:cx="16.489535"
   inkscape:cy="33.645313"
   inkscape:window-width="1920"
   inkscape:window-height="1009"
   inkscape:window-x="-8"
   inkscape:window-y="-8"
   inkscape:window-maximized="1"
   inkscape:current-layer="svg8"
   inkscape:showpageshadow="0"
   inkscape:deskcolor="#505050" />
<metadata
   id="metadata2"> Svg Vector Icons : http://www.onlinewebfonts.com/icon </metadata>
<path
   d="m 39.079078,37.203795 c -0.323299,0.107767 -0.700481,0.195938 -1.126646,0.269416 -0.03429,0 -0.07348,0.0098 -0.107766,0.02939 -0.03429,0.01959 -0.08817,0.02939 -0.16165,0.02939 -0.391877,0.07348 -0.754363,0.107766 -1.072762,0.107766 -0.3184,0 -0.680886,-0.01959 -1.072762,-0.05389 H 35.321959 L 34.30308,37.424228 c -0.03429,0.03429 -0.259618,0.357587 -0.671089,0.964996 -0.41147,0.607409 -0.680886,0.999285 -0.803347,1.180528 -0.127361,0.181243 -0.396775,0.543729 -0.803348,1.102154 -0.41147,0.553526 -0.739667,0.974793 -0.994387,1.263803 -0.249821,0.28411 -0.563323,0.636799 -0.940504,1.04827 -0.377181,0.41147 -0.759261,0.778855 -1.156036,1.102153 H 13.8961 C 12.357984,43.297478 10.996213,42.205121 9.8156831,40.809061 8.6351552,39.413 7.7240418,38.026736 7.0774452,36.645371 6.4357471,35.268904 5.8969167,33.745484 5.4658523,32.080007 5.0347879,30.414531 4.7506774,29.08215 4.608622,28.077966 4.4665667,27.073782 4.3588006,26.089192 4.2853237,25.124196 v -1.077662 c 0,-0.715174 0.2596184,-1.386264 0.778855,-2.013265 0.5192366,-0.627003 1.1168486,-0.940505 1.7977344,-0.940505 H 35.802008 c 0.323298,0 0.627003,0.07837 0.916012,0.240024 0.289009,0.161649 0.53883,0.357588 0.749464,0.592714 0.215532,0.235126 0.391877,0.494744 0.538831,0.778855 0.142055,0.284111 0.249822,0.57312 0.323298,0.857231 0.357587,0.03429 0.734768,0.08817 1.126646,0.161649 h 0.107766 c 0.715175,0.107765 1.39606,0.323297 2.042657,0.646596 0.07348,0 0.12736,0.01959 0.161649,0.05389 l 0.431065,0.215532 c 0.07348,0.03429 0.142055,0.07837 0.215532,0.132258 0.07348,0.05389 0.142055,0.09797 0.215532,0.132259 0.142055,0.107766 0.279212,0.205735 0.401673,0.293907 0.12736,0.08817 0.240025,0.205736 0.347791,0.347791 0.03428,0 0.05389,0.01959 0.05389,0.05388 l 0.107766,0.05389 c 0.107766,0.107766 0.215532,0.225329 0.323298,0.34779 0.107767,0.12736 0.215532,0.244923 0.323299,0.347791 v 0 c 0.107766,0.142055 0.195938,0.279212 0.269414,0.401674 0.07348,0.12736 0.142056,0.259618 0.215533,0.401673 l 0.107766,0.215533 c 0.181243,0.323298 0.303704,0.607408 0.377182,0.85723 0.53883,1.861414 0.215532,3.659149 -0.964997,5.398102 -1.190325,1.74875 -2.890091,2.939075 -5.113991,3.580773 z M 12.33839,24.051433 H 8.0963247 c 0.034289,0.03429 0.029391,0.279212 -0.02939,0.724972 -0.058781,0.44576 -0.02939,1.107052 0.083274,1.983876 0.107766,0.876824 0.2253291,1.827125 0.3477905,2.846004 0.12736,1.01888 0.3771809,2.111236 0.7494639,3.27707 0.377182,1.160934 0.8131449,2.272885 1.3176859,3.330952 0.499642,1.058067 1.190325,2.067149 2.067149,3.032145 0.876825,0.964998 1.871211,1.734055 2.983162,2.307175 -1.180528,-2.292479 -2.091642,-4.477192 -2.738239,-6.54924 -0.641698,-2.076947 -1.028676,-3.722829 -1.156035,-4.937647 -0.127361,-1.214817 -0.137158,-2.346361 -0.02939,-3.384834 0.107766,-1.038474 0.225329,-1.699766 0.34779,-1.983876 0.127361,-0.293908 0.22533,-0.504542 0.298806,-0.646597 z m 29.694458,5.099296 c -0.142055,-0.499643 -0.391877,-0.9552 -0.749464,-1.371569 -0.357588,-0.41147 -0.798449,-0.734768 -1.317685,-0.964996 -0.519238,-0.230228 -1.062967,-0.38208 -1.636086,-0.455556 -0.07348,1.180528 -0.303704,2.512909 -0.695582,4.00204 -0.391876,1.484233 -1.018879,2.983162 -1.881007,4.48209 0.215532,0.03429 0.357587,0.05389 0.431064,0.05389 l 0.05389,0.05389 h 0.107765 c 0.249822,0 0.538832,-0.01959 0.857231,-0.05389 h 0.215532 v -0.05389 c 0.357588,-0.03428 0.661292,-0.08817 0.916013,-0.161649 1.361771,-0.391876 2.405142,-1.126646 3.139912,-2.204306 0.729869,-1.067864 0.916011,-2.179815 0.558424,-3.326054 z M 23.771393,19.593836 c 0.754363,-1.004184 1.322584,-1.934892 1.71936,-2.792122 0.391876,-0.85723 0.597611,-1.601796 0.617205,-2.228799 0.01959,-0.627003 -0.03429,-1.190326 -0.161649,-1.689968 -0.12736,-0.499643 -0.357587,-0.950301 -0.695581,-1.342178 -0.337994,-0.391877 -0.661293,-0.715175 -0.964996,-0.964996 -0.303705,-0.249822 -0.646597,-0.50944 -1.01888,-0.7788555 C 22.889671,9.5275028 22.630052,9.3413611 22.487997,9.233595 22.164699,8.8760075 21.905081,8.2588016 21.709142,7.3819775 21.513203,6.5051534 21.459321,5.5548524 21.547493,4.535973 21.635665,3.5170935 22.086324,2.5569956 22.889671,1.6654761 23.693018,0.76905805 24.814765,0.21553219 26.245115,0 25.490753,0.75436267 25.000906,1.49403 24.770678,2.2287988 24.540451,2.9635676 24.51106,3.639555 24.687408,4.2665577 c 0.176345,0.6270027 0.455557,1.2638024 0.832738,1.9055005 0.377181,0.6416981 0.798449,1.2784978 1.263802,1.9055005 0.465354,0.6270027 0.89152,1.2638024 1.288295,1.9055004 0.396775,0.6416979 0.656394,1.3225839 0.778855,2.0377589 0.122462,0.715175 0.07837,1.449944 -0.132259,2.204306 -0.210633,0.754363 -0.729869,1.591999 -1.557709,2.522707 -0.82784,0.930707 -1.954485,1.881009 -3.389735,2.846005 z m -6.495356,0 c 0.715174,-0.930708 1.224614,-1.797735 1.528319,-2.605981 0.303705,-0.803347 0.435963,-1.469537 0.401674,-1.983875 -0.03429,-0.519238 -0.181243,-1.009083 -0.431065,-1.474436 -0.249821,-0.465354 -0.519237,-0.813145 -0.803347,-1.048271 -0.289009,-0.235125 -0.627003,-0.484947 -1.018879,-0.749464 -0.391878,-0.264517 -0.641698,-0.455556 -0.749465,-0.563323 -0.284111,-0.284111 -0.499642,-0.788652 -0.646597,-1.5038265 -0.142055,-0.7151751 -0.181243,-1.4940301 -0.107766,-2.336565 0.07348,-0.842535 0.431065,-1.6213899 1.072763,-2.3365649 0.641698,-0.715175 1.55771,-1.1805286 2.738238,-1.3960608 -0.641698,0.6808858 -1.053168,1.3617716 -1.234411,2.0426574 -0.181243,0.6808858 -0.142055,1.2980915 0.107766,1.8516174 0.249822,0.5535259 0.553526,1.1364425 0.916012,1.7438514 0.357587,0.6074088 0.759261,1.190325 1.20992,1.743852 0.445759,0.553525 0.778854,1.156035 0.994386,1.797733 0.215532,0.641699 0.279212,1.298092 0.186142,1.959384 -0.08817,0.661292 -0.47515,1.415655 -1.156037,2.253291 -0.680885,0.842535 -1.685069,1.709562 -3.007653,2.605981 z M 38.59413,47.999999 H 3.0460137 c -0.6808858,0 -1.2344117,-0.09797 -1.6654761,-0.293908 -0.43106443,-0.195938 -0.73476883,-0.421267 -0.91601183,-0.671088 -0.181243,-0.249822 -0.3037045,-0.543729 -0.3771813,-0.886621 -0.0734769,-0.342893 -0.0979692,-0.573121 -0.0832738,-0.695582 0.019594,-0.122462 0.029391,-0.220431 0.029391,-0.293907 H 41.219703 v 0.107765 c 0,0.07348 -0.0098,0.161649 -0.02449,0.269416 -0.01959,0.107766 -0.02939,0.230228 -0.02939,0.377181 0,0.142055 -0.03428,0.289009 -0.107766,0.431065 l -0.215532,0.53883 c -0.07348,0.142055 -0.181243,0.284111 -0.323299,0.431065 -0.142055,0.146953 -0.293907,0.269414 -0.455556,0.377181 -0.161649,0.107766 -0.367385,0.186142 -0.617207,0.240024 C 39.201534,47.970606 38.912525,48 38.594125,48 Z"
   id="path4"
   style="stroke-width:0.0489846" />
</svg>
