<?xml version="1.0" encoding="UTF-8" standalone="no"?>
<!-- Generator: Adobe Illustrator 17.1.0, SVG Export Plug-In . SVG Version: 6.00 Build 0)  -->

<svg
   version="1.1"
   id="Capa_1"
   x="0px"
   y="0px"
   viewBox="0 0 45.206227 47.999999"
   xml:space="preserve"
   sodipodi:docname="cinema.svg"
   width="45.206226"
   height="48"
   inkscape:version="1.2.1 (9c6d41e410, 2022-07-14)"
   xmlns:inkscape="http://www.inkscape.org/namespaces/inkscape"
   xmlns:sodipodi="http://sodipodi.sourceforge.net/DTD/sodipodi-0.dtd"
   xmlns="http://www.w3.org/2000/svg"
   xmlns:svg="http://www.w3.org/2000/svg"><defs
   id="defs37" /><sodipodi:namedview
   id="namedview35"
   pagecolor="#505050"
   bordercolor="#eeeeee"
   borderopacity="1"
   inkscape:pageshadow="0"
   inkscape:pageopacity="0"
   inkscape:pagecheckerboard="0"
   showgrid="false"
   fit-margin-top="0"
   fit-margin-left="0"
   fit-margin-right="0"
   fit-margin-bottom="0"
   inkscape:zoom="4.0315637"
   inkscape:cx="51.716906"
   inkscape:cy="98.969043"
   inkscape:window-width="1920"
   inkscape:window-height="1009"
   inkscape:window-x="-8"
   inkscape:window-y="-8"
   inkscape:window-maximized="1"
   inkscape:current-layer="Capa_1"
   inkscape:showpageshadow="0"
   inkscape:deskcolor="#505050" />
<path
   d="M 43.990678,20.397335 H 8.5158794 L 41.693778,8.3130854 C 41.996692,8.2027136 42.243449,7.9766217 42.37959,7.6844039 42.515732,7.3921862 42.530318,7.0579105 42.41995,6.7549959 L 40.250679,0.79953962 C 40.020941,0.16842705 39.323216,-0.15539496 38.69259,0.07337119 L 0.79958019,13.87519 c -0.3029146,0.110372 -0.5494277,0.336464 -0.6858122,0.628682 -0.1361414,0.292217 -0.150728,0.626493 -0.0403562,0.929408 l 2.16902391,5.955213 c 0.038654,0.105996 0.092625,0.201295 0.155104,0.288814 V 46.784452 C 2.3975397,47.455921 2.9418622,48 3.6130878,48 H 43.990678 c 0.671468,0 1.215548,-0.544079 1.215548,-1.215548 v -18.833459 -6.33811 c 0,-0.671469 -0.54408,-1.215548 -1.215548,-1.215548 z M 38.989183,4.4396199 39.719728,6.444788 38.586351,6.8575881 Z m -9.056076,1.4114944 4.70174,-1.7124641 -0.737594,4.426783 -4.70174,1.7124638 z m -9.390595,3.4203092 4.701497,-1.7124641 -0.737595,4.4267826 -4.701497,1.712464 z m -9.390838,3.4205525 4.701497,-1.712464 -0.737595,4.42654 -4.701254,1.712464 z M 6.4623325,14.400064 5.7247379,18.826604 4.1109763,19.414443 2.7738734,15.743488 Z M 6.5955566,26.735445 H 4.8779871 V 22.828431 H 8.803721 Z m 9.9942364,0 h -5.003439 l 2.208164,-3.907014 h 5.003683 z m 9.994479,0 H 21.58059 l 2.207922,-3.907014 h 5.003925 z m 9.99448,0 h -5.003926 l 2.208165,-3.907014 h 5.003925 z m 6.196377,0 h -1.206066 l 1.206066,-2.134016 z"
   id="path2"
   style="stroke-width:0.24311" />















</svg>
