<?xml version="1.0" encoding="UTF-8" standalone="no"?>
<!-- Generator: Adobe Illustrator 17.1.0, SVG Export Plug-In . SVG Version: 6.00 Build 0)  -->

<svg
   version="1.1"
   id="Capa_1"
   x="0px"
   y="0px"
   viewBox="0 0 44.907384 48.000001"
   xml:space="preserve"
   sodipodi:docname="coconut.svg"
   width="44.907383"
   height="48"
   inkscape:version="1.2.1 (9c6d41e410, 2022-07-14)"
   xmlns:inkscape="http://www.inkscape.org/namespaces/inkscape"
   xmlns:sodipodi="http://sodipodi.sourceforge.net/DTD/sodipodi-0.dtd"
   xmlns="http://www.w3.org/2000/svg"
   xmlns:svg="http://www.w3.org/2000/svg"><defs
   id="defs37" /><sodipodi:namedview
   id="namedview35"
   pagecolor="#505050"
   bordercolor="#eeeeee"
   borderopacity="1"
   inkscape:pageshadow="0"
   inkscape:pageopacity="0"
   inkscape:pagecheckerboard="0"
   showgrid="false"
   fit-margin-top="0"
   fit-margin-left="0"
   fit-margin-right="0"
   fit-margin-bottom="0"
   inkscape:zoom="1.6694631"
   inkscape:cx="124.89045"
   inkscape:cy="142.5608"
   inkscape:window-width="1920"
   inkscape:window-height="1009"
   inkscape:window-x="-8"
   inkscape:window-y="-8"
   inkscape:window-maximized="1"
   inkscape:current-layer="Capa_1"
   inkscape:showpageshadow="0"
   inkscape:deskcolor="#505050" />
<path
   d="m 40.351408,11.985604 c -0.02084,-0.02738 -0.04339,-0.05245 -0.06684,-0.07651 C 39.829732,11.333658 39.250973,10.782886 38.552114,10.26594 36.92416,9.0615101 34.674059,8.0576174 32.017449,7.3455705 V 4.8926174 c 0,-0.3885906 0.316107,-0.7046979 0.704698,-0.7046979 h 6.28188 c 0.444764,0 0.805368,-0.3606041 0.805368,-0.8053692 V 0.80536913 C 39.809396,0.36060403 39.448791,0 39.004027,0 h -6.740941 c -2.442481,0 -4.42953,1.987047 -4.42953,4.4295302 V 6.5183557 C 26.094664,6.2836913 24.289933,6.1635906 22.453691,6.1635906 14.546175,6.1635906 7.9083221,8.3234899 4.9938926,11.485973 4.9265436,11.531473 4.8647315,11.587752 4.8116779,11.655 1.6638926,15.647416 0,20.45094 0,25.546309 0,31.543893 2.3355705,37.182483 6.5765436,41.423456 10.817417,45.66443 16.456108,48 22.453691,48 c 5.997583,0 11.636175,-2.33557 15.877147,-6.576544 4.240974,-4.240973 6.576544,-9.879563 6.576544,-15.877147 0,-4.943557 -1.575403,-9.632819 -4.555974,-13.560705 z m -8.333959,2.105839 c 0.231443,0.310067 0.392114,0.661711 0.392114,1.041443 0,0.344799 -0.135705,0.696846 -0.392114,1.041946 z M 32.263086,1.6107383 h 5.935572 v 0.9664429 h -5.476509 c -1.276713,0 -2.315437,1.0387248 -2.315437,2.3154362 V 17.470671 c -0.292449,0.160671 -0.614094,0.314094 -0.962416,0.458457 v -6.731477 c 0,-0.0026 0,-0.0051 0,-0.0078 V 4.4295302 c 0,-1.5542617 1.264429,-2.8187919 2.81879,-2.8187919 z M 22.453691,19.143624 c -5.867115,0 -9.955871,-2.113691 -9.955871,-4.010738 0,-1.897047 4.088756,-4.010738 9.955871,-4.010738 1.920706,0 3.766511,0.232248 5.379865,0.672986 v 6.678926 c -1.513389,0.413557 -3.338858,0.669564 -5.379865,0.669564 z m 5.758389,26.43604 c 0.283893,-0.2551 0.562652,-0.529026 0.835167,-0.822785 1.839666,-1.982919 3.371275,-4.798792 4.429329,-8.143389 0.134195,-0.424128 -0.100872,-0.876644 -0.524898,-1.010839 -0.424329,-0.134195 -0.876644,0.100973 -1.010838,0.524899 -2.00235,6.329598 -5.637585,10.261611 -9.487149,10.261611 -3.849562,0 -7.484797,-3.932013 -9.487147,-10.261611 -0.134195,-0.424027 -0.586712,-0.658993 -1.010839,-0.524899 -0.424027,0.134195 -0.659094,0.586711 -0.5249,1.010839 1.058054,3.344597 2.589665,6.16047 4.429328,8.143389 0.272619,0.293759 0.551377,0.567685 0.835168,0.822785 C 7.9942953,43.074866 1.6107383,35.042315 1.6107383,25.546309 c 0,-3.165604 0.6927181,-6.209296 2.0261073,-8.987416 1.4107047,4.328557 9.1692284,7.543288 18.8168454,7.543288 3.781812,0 7.428322,-0.505973 10.545301,-1.463255 0.425236,-0.13057 0.664027,-0.581074 0.533457,-1.006309 -0.130571,-0.425335 -0.581677,-0.664026 -1.006309,-0.533456 -2.965671,0.910772 -6.448691,1.392282 -10.072349,1.392282 -4.761544,0 -9.225705,-0.824295 -12.5697975,-2.320873 -3.092819,-1.384127 -4.8665438,-3.220268 -4.8665438,-5.037684 0,-1.817416 1.7737248,-3.653557 4.8664428,-5.037685 C 13.227986,8.5985235 17.692147,7.7743289 22.45369,7.7743289 c 1.840369,0 3.64651,0.1244295 5.379866,0.369161 V 10.130839 C 26.187885,9.7244295 24.350536,9.5114094 22.45369,9.5114094 c -2.985302,0 -5.804597,0.5259056 -7.938322,1.4808726 -2.339698,1.04708 -3.628288,2.517584 -3.628288,4.140604 0,1.62302 1.288489,3.093523 3.628288,4.140604 2.133725,0.954966 4.95302,1.480872 7.938322,1.480872 2.315839,0 4.530101,-0.317718 6.403591,-0.905536 0.01581,-0.0044 0.03131,-0.0095 0.04671,-0.0148 0.524396,-0.166309 1.023322,-0.352651 1.488121,-0.560638 2.339698,-1.04708 3.628289,-2.517584 3.628289,-4.140604 0,-0.847047 -0.359598,-2.070302 -2.002853,-3.229832 V 9.0163087 c 4.81651,1.3745633 7.872484,3.7239263 7.872484,6.1165773 0,1.600268 -1.327249,2.88302 -2.440571,3.677215 -0.362114,0.258221 -0.446275,0.761275 -0.187953,1.123389 0.157148,0.220268 0.404799,0.337651 0.656376,0.337651 0.161778,0 0.325168,-0.04862 0.467013,-0.149799 1.493457,-1.065302 2.470369,-2.276174 2.886343,-3.559027 1.333087,2.780537 2.025503,5.826242 2.025503,8.983893 -1.01e-4,9.496107 -6.383658,17.528658 -15.084663,20.033456 z"
   id="path2"
   style="stroke-width:0.100671" />
<g
   id="g4"
   transform="translate(-16.906309)">
</g>
<g
   id="g6"
   transform="translate(-16.906309)">
</g>
<g
   id="g8"
   transform="translate(-16.906309)">
</g>
<g
   id="g10"
   transform="translate(-16.906309)">
</g>
<g
   id="g12"
   transform="translate(-16.906309)">
</g>
<g
   id="g14"
   transform="translate(-16.906309)">
</g>
<g
   id="g16"
   transform="translate(-16.906309)">
</g>
<g
   id="g18"
   transform="translate(-16.906309)">
</g>
<g
   id="g20"
   transform="translate(-16.906309)">
</g>
<g
   id="g22"
   transform="translate(-16.906309)">
</g>
<g
   id="g24"
   transform="translate(-16.906309)">
</g>
<g
   id="g26"
   transform="translate(-16.906309)">
</g>
<g
   id="g28"
   transform="translate(-16.906309)">
</g>
<g
   id="g30"
   transform="translate(-16.906309)">
</g>
<g
   id="g32"
   transform="translate(-16.906309)">
</g>
</svg>
