<?xml version="1.0" encoding="UTF-8" standalone="no"?>
<!-- Generator: Adobe Illustrator 17.1.0, SVG Export Plug-In . SVG Version: 6.00 Build 0)  -->

<svg
   version="1.1"
   id="Capa_1"
   x="0px"
   y="0px"
   viewBox="0 0 39.215949 47.999998"
   xml:space="preserve"
   sodipodi:docname="doctors.svg"
   width="39.21595"
   height="48"
   inkscape:version="1.2.1 (9c6d41e410, 2022-07-14)"
   xmlns:inkscape="http://www.inkscape.org/namespaces/inkscape"
   xmlns:sodipodi="http://sodipodi.sourceforge.net/DTD/sodipodi-0.dtd"
   xmlns="http://www.w3.org/2000/svg"
   xmlns:svg="http://www.w3.org/2000/svg"><defs
   id="defs41" /><sodipodi:namedview
   id="namedview39"
   pagecolor="#505050"
   bordercolor="#eeeeee"
   borderopacity="1"
   inkscape:pageshadow="0"
   inkscape:pageopacity="0"
   inkscape:pagecheckerboard="0"
   showgrid="false"
   fit-margin-top="0"
   fit-margin-left="0"
   fit-margin-right="0"
   fit-margin-bottom="0"
   inkscape:zoom="3.9538256"
   inkscape:cx="37.305641"
   inkscape:cy="101.16784"
   inkscape:window-width="1920"
   inkscape:window-height="1009"
   inkscape:window-x="-8"
   inkscape:window-y="-8"
   inkscape:window-maximized="1"
   inkscape:current-layer="Capa_1"
   inkscape:showpageshadow="0"
   inkscape:deskcolor="#505050" />
<path
   id="circle2"
   d="M 18.399891,1.1496914e-8 A 2.4040029,2.4040029 0 0 0 16.289024,1.2666136 c -2.09688,0.2552786 -3.931116,1.4549105 -5.010109,3.3239294 -1.221433,2.1157514 -1.221433,4.6417776 0,6.757291 l 7.658356,13.264518 c 1.018536,1.76408 2.709878,2.93224 4.659927,3.272705 v 6.39733 c 0,6.249263 -3.689139,11.333399 -8.223675,11.333399 -4.534536,0 -8.2232099,-5.084136 -8.2232099,-11.333399 v -7.61691 c 2.71562,-0.553614 4.7656339,-2.960796 4.7656339,-5.838065 0,-3.285208 -2.6729979,-5.957741 -5.9582069,-5.957741 C 2.6725323,14.869671 0,17.542204 0,20.827412 c 0,2.877031 2.0497757,5.284212 4.7656337,5.838065 v 7.61691 C 4.7656337,41.846306 9.5243311,48 15.373523,48 c 5.848953,0 10.60789,-6.153694 10.60789,-13.717613 v -6.39733 c 1.94981,-0.340465 3.641162,-1.508625 4.65946,-3.272705 l 7.658822,-13.264518 c 1.221671,-2.1155134 1.221671,-4.6417781 0,-6.757291 C 37.214486,2.7109701 35.365221,1.5100355 33.253265,1.2642853 A 2.4040029,2.4040029 0 0 0 31.136808,1.1496914e-8 2.4040029,2.4040029 0 0 0 28.733036,2.4037718 2.4040029,2.4040029 0 0 0 31.136808,4.8080095 2.4040029,2.4040029 0 0 0 33.181086,3.6634004 c 1.277342,0.2119645 2.388216,0.966648 3.053844,2.1192495 0.790605,1.369254 0.790367,3.0038227 0,4.3730771 L 28.576572,23.42071 c -0.790366,1.369016 -2.206294,2.186067 -3.787266,2.186305 -1.580973,0 -2.996663,-0.817051 -3.787269,-2.186305 L 13.343681,10.155727 c -0.790366,-1.369016 -0.790366,-3.0040615 0,-4.3730771 0.658755,-1.1410457 1.754861,-1.8910106 3.016124,-2.1117988 A 2.4040029,2.4040029 0 0 0 18.399891,4.8080095 2.4040029,2.4040029 0 0 0 20.804129,2.4037718 2.4040029,2.4040029 0 0 0 18.399891,1.1496914e-8 Z"
   style="stroke-width:0.238421" />

















</svg>
