<?xml version="1.0" encoding="UTF-8" standalone="no"?>
<!-- Generator: Adobe Illustrator 19.0.0, SVG Export Plug-In . SVG Version: 6.00 Build 0)  -->

<svg
   version="1.1"
   id="Capa_1"
   x="0px"
   y="0px"
   viewBox="0 0 48.000002 48.000001"
   xml:space="preserve"
   sodipodi:docname="fast_food.svg"
   width="48"
   height="48"
   inkscape:version="1.2.1 (9c6d41e410, 2022-07-14)"
   xmlns:inkscape="http://www.inkscape.org/namespaces/inkscape"
   xmlns:sodipodi="http://sodipodi.sourceforge.net/DTD/sodipodi-0.dtd"
   xmlns="http://www.w3.org/2000/svg"
   xmlns:svg="http://www.w3.org/2000/svg"><defs
   id="defs51" /><sodipodi:namedview
   id="namedview49"
   pagecolor="#505050"
   bordercolor="#eeeeee"
   borderopacity="1"
   inkscape:pageshadow="0"
   inkscape:pageopacity="0"
   inkscape:pagecheckerboard="0"
   showgrid="false"
   fit-margin-top="0"
   fit-margin-left="0"
   fit-margin-right="0"
   fit-margin-bottom="0"
   inkscape:zoom="1.6251532"
   inkscape:cx="190.75125"
   inkscape:cy="244.89999"
   inkscape:window-width="1920"
   inkscape:window-height="1009"
   inkscape:window-x="-8"
   inkscape:window-y="-8"
   inkscape:window-maximized="1"
   inkscape:current-layer="Capa_1"
   inkscape:showpageshadow="0"
   inkscape:deskcolor="#505050" />
<path
   id="path10"
   d="m 14.857378,38.936407 h 2.56843 c -1.570694,-0.691501 -2.647459,-2.22268 -2.647459,-4.069974 0,-1.916444 1.224944,-3.576044 2.953695,-4.188515 H 14.8475 v -1.955959 c 0,-5.107223 4.149001,-9.256225 9.256225,-9.256225 h 9.098168 L 34.426837,7.7497424 H 1.8275366 L 6.0852027,48.182754 H 18.413666 C 13.820128,44.547437 14.857378,38.936407 14.857378,38.936407 Z M 36.284009,5.8728131 33.705701,-0.1926325 H 2.607944 L 0,5.8728131 Z M 45.500721,32.406667 H 19.194073 c -1.383001,0 -2.49928,1.11628 -2.49928,2.49928 0,1.383002 1.116279,2.49928 2.49928,2.49928 h 26.306648 c 1.383,0 2.499279,-1.116278 2.499279,-2.49928 0,-1.383 -1.116279,-2.49928 -2.499279,-2.49928 z M 24.113603,48.192633 h 16.477466 c 4.030458,0 7.300267,-3.25993 7.300267,-7.300269 h -31.078 c 0,4.030459 3.269809,7.300269 7.300267,7.300269 z m -7.300267,-19.43116 v 0 h 31.068121 v 0 c 0,-4.030459 -3.25993,-7.300267 -7.300267,-7.300267 H 24.113603 c -4.030458,0 -7.300267,3.269808 -7.300267,7.300267 z"
   style="stroke-width:0.0987857" />















</svg>
