<?xml version="1.0" encoding="UTF-8" standalone="no"?>
<!-- Svg Vector Icons : http://www.onlinewebfonts.com/icon -->

<svg
   version="1.1"
   x="0px"
   y="0px"
   viewBox="0 0 25.727173 48"
   enable-background="new 0 0 1000 1000"
   xml:space="preserve"
   id="svg10"
   sodipodi:docname="ice_cream.svg"
   width="25.727173"
   height="48"
   inkscape:version="1.2.1 (9c6d41e410, 2022-07-14)"
   xmlns:inkscape="http://www.inkscape.org/namespaces/inkscape"
   xmlns:sodipodi="http://sodipodi.sourceforge.net/DTD/sodipodi-0.dtd"
   xmlns="http://www.w3.org/2000/svg"
   xmlns:svg="http://www.w3.org/2000/svg"><defs
   id="defs14" /><sodipodi:namedview
   id="namedview12"
   pagecolor="#505050"
   bordercolor="#eeeeee"
   borderopacity="1"
   inkscape:pageshadow="0"
   inkscape:pageopacity="0"
   inkscape:pagecheckerboard="0"
   showgrid="false"
   fit-margin-top="0"
   fit-margin-left="0"
   fit-margin-right="0"
   fit-margin-bottom="0"
   inkscape:zoom="10.24"
   inkscape:cx="3.1738281"
   inkscape:cy="24.707031"
   inkscape:window-width="1920"
   inkscape:window-height="1009"
   inkscape:window-x="-8"
   inkscape:window-y="-8"
   inkscape:window-maximized="1"
   inkscape:current-layer="svg10"
   inkscape:showpageshadow="0"
   inkscape:deskcolor="#505050" />
<metadata
   id="metadata2"> Svg Vector Icons : http://www.onlinewebfonts.com/icon </metadata>
<path
   d="m 13.986122,0.39771429 c 0.365388,0.38155102 0.365388,0.42906122 0.159184,1.49387751 -0.23853,1.2396735 -0.14302,1.9866123 0.397225,3.0200817 0.588245,1.1603265 0.937959,1.3988571 2.272653,1.4782041 1.493877,0.1111836 2.44751,0.6514285 3.146938,1.8435918 0.731266,1.2078367 0.826286,2.4479996 0.317878,3.6876736 -0.07935,0.174857 0.04751,0.302204 0.429061,0.445224 0.810612,0.286041 1.827919,1.239674 2.30449,2.16147 0.572082,1.080979 0.603918,3.003918 0.07935,3.989387 l -0.333551,0.651919 0.715102,0.381551 c 0.922286,0.492245 1.716735,1.429714 2.050775,2.415184 0.334041,1.001142 0.238531,2.670367 -0.174857,3.544163 -0.445224,0.921796 -1.557551,1.939102 -2.49551,2.256979 -0.508408,0.190531 -0.858122,0.429062 -1.001143,0.683266 -0.111183,0.222367 -1.939102,4.545796 -4.053061,9.616163 -2.113959,5.070367 -4.005551,9.377633 -4.179918,9.568163 C 13.445878,47.841306 13.111837,48 12.873796,48 12.635755,48 12.301714,47.840816 12.126857,47.634612 11.952,47.443592 10.060408,43.136816 7.946939,38.066449 5.83298,32.996082 4.005061,28.65698 3.878204,28.434612 3.750857,28.180408 3.449143,27.957551 3.051918,27.846367 1.351347,27.337959 0,25.462041 0,23.602776 0,21.79102 0.826775,20.312816 2.272653,19.549714 L 2.972082,19.168163 2.638041,18.453061 C 2.129633,17.340245 2.177143,15.592163 2.733551,14.527347 3.289959,13.462531 4.306775,12.588245 5.515102,12.159184 5.530772,12.143024 5.435752,11.793796 5.308408,11.364245 4.70449,9.3776327 5.991673,7.0408163 7.978775,6.5167347 8.535184,6.357551 8.582694,6.2943673 8.582694,5.7854694 8.582694,5.0860408 9.107265,3.4966531 9.6,2.7340408 10.426776,1.4306939 12.317878,0 13.207837,0 c 0.221877,4.8979592e-4 0.571592,0.17534694 0.778285,0.39771429 z M 11.045388,5.0071837 c -0.191021,0.5882449 -0.238531,1.0491428 -0.174857,1.7642449 0.07935,0.8262857 0.04751,1.0329796 -0.222368,1.3670204 C 10.393959,8.472 10.171102,8.5518367 9.36098,8.6155102 8.502857,8.6791842 8.311837,8.7423673 7.930286,9.1875918 6.992326,10.236735 7.485061,11.619429 8.899592,11.937306 c 0.921796,0.206694 1.27151,0.540245 1.27151,1.192163 0,0.365388 -0.111184,0.603919 -0.413388,0.842449 -0.365388,0.286041 -0.651918,0.333551 -2.034612,0.333551 -1.939102,0 -2.479837,0.254204 -2.972082,1.367021 -0.349714,0.778775 -0.302204,1.382694 0.143021,2.161469 0.302204,0.508408 1.27151,1.08098 1.875428,1.08098 0.98547,0 1.541388,1.224 0.858123,1.907265 -0.270368,0.270367 -0.524572,0.317878 -1.875429,0.317878 -1.303347,0 -1.668734,0.06367 -2.256979,0.349714 -1.636898,0.842449 -1.684898,2.829061 -0.111184,4.005551 0.444735,0.333551 0.572082,0.333551 9.45698,0.333551 8.455836,0 9.043591,-0.01567 9.488816,-0.286041 0.715102,-0.445224 1.08098,-1.032979 1.144163,-1.843592 0.09551,-1.001143 -0.333551,-1.732408 -1.224,-2.209469 -0.683265,-0.333551 -0.826775,-0.349714 -5.817306,-0.349714 h -5.133551 l -0.317878,-0.413388 c -0.429061,-0.556408 -0.413387,-0.937959 0.06367,-1.414531 l 0.381551,-0.397224 h 3.989388 c 4.641306,0 4.94302,-0.07935 5.546939,-1.319021 0.413387,-0.842449 0.413387,-1.112326 0.01616,-1.970938 -0.477061,-1.064817 -1.049143,-1.319021 -2.956408,-1.319021 -1.382694,0 -1.668735,-0.04751 -2.034613,-0.333551 -0.302204,-0.23853 -0.413387,-0.477061 -0.413387,-0.842449 0,-0.651428 0.349714,-0.985469 1.27151,-1.192163 0.953632,-0.206694 1.430694,-0.763102 1.430694,-1.668735 0,-0.5402447 -0.09551,-0.7631018 -0.477062,-1.1284896 C 17.370612,8.7271837 17.180082,8.6796735 15.971755,8.6003265 14.652735,8.5048163 14.620898,8.5048163 13.889633,7.7897143 12.79298,6.7087347 12.173388,5.6120816 11.839347,4.0706939 11.743837,3.6416327 11.728163,3.6254694 11.537633,3.9115102 11.411265,4.0692245 11.204571,4.5619592 11.045388,5.0071837 Z M 6.357061,28.275918 c 0,0.07935 0.111184,0.397225 0.238531,0.715102 l 0.23853,0.572082 h 4.51396 4.529632 l 0.317878,0.413388 c 0.413388,0.540734 0.413388,0.858122 0,1.382694 l -0.317878,0.429061 -4.021224,0.03184 -4.036898,0.04751 2.479347,5.912816 c 1.36702,3.258123 2.527347,5.92849 2.574857,5.92849 0.09551,0 6.516735,-15.242449 6.516735,-15.464816 0,-0.06367 -2.940245,-0.111184 -6.516735,-0.111184 -3.640163,0 -6.516735,0.06367 -6.516735,0.14302 z"
   id="path4"
   style="stroke-width:0.00489796" />
</svg>
