<?xml version="1.0" encoding="UTF-8" standalone="no"?>
<!-- Generator: Adobe Illustrator 19.0.0, SVG Export Plug-In . SVG Version: 6.00 Build 0)  -->

<svg
   version="1.1"
   id="Layer_1"
   x="0px"
   y="0px"
   viewBox="0 0 41.184376 48"
   xml:space="preserve"
   sodipodi:docname="library.svg"
   width="41.184376"
   height="48"
   inkscape:version="1.2.1 (9c6d41e410, 2022-07-14)"
   xmlns:inkscape="http://www.inkscape.org/namespaces/inkscape"
   xmlns:sodipodi="http://sodipodi.sourceforge.net/DTD/sodipodi-0.dtd"
   xmlns="http://www.w3.org/2000/svg"
   xmlns:svg="http://www.w3.org/2000/svg"><defs
   id="defs59" /><sodipodi:namedview
   id="namedview57"
   pagecolor="#505050"
   bordercolor="#eeeeee"
   borderopacity="1"
   inkscape:pageshadow="0"
   inkscape:pageopacity="0"
   inkscape:pagecheckerboard="0"
   showgrid="false"
   fit-margin-top="0"
   fit-margin-left="0"
   fit-margin-right="0"
   fit-margin-bottom="0"
   inkscape:zoom="1.5546875"
   inkscape:cx="112.88442"
   inkscape:cy="256"
   inkscape:window-width="1920"
   inkscape:window-height="1009"
   inkscape:window-x="-8"
   inkscape:window-y="-8"
   inkscape:window-maximized="1"
   inkscape:current-layer="Layer_1"
   inkscape:showpageshadow="0"
   inkscape:deskcolor="#505050" />



<path
   id="rect20"
   d="m 25.303995,7.480235 3.712228,-0.7168124 0.554739,2.8728858 -3.712226,0.7168126 z m -10.841464,-1.5312349 3.900939,1e-7 2e-6,2.9257499 -3.90094,10e-8 z m -9.9484684,0 h 3.9009379 v 2.92575 l -3.900938,10e-8 z M 32.079,0.03403118 22.81978,1.887 V 2.0283749e-8 L 12.872624,0 9.9468745,6.8709374e-8 10e-8,0 0,47.786812 h 9.9469685 2.9257505 9.946968 V 17.801344 L 28.862906,48 41.184376,45.534281 Z M 9.9469685,44.861062 H 2.9256563 v -2.178 h 7.0212182 v 2.178 z m 0,-5.10375 H 2.9256563 V 2.9257501 H 9.9468745 V 39.757312 Z m 9.9469685,5.10375 h -7.021218 v -2.178 h 7.021218 z m 9.3e-5,-5.10375 H 12.872813 V 2.9257501 h 6.970124 l 0.05109,0.2555622 z m 3.306564,-34.9629368 6.583782,-1.3175627 6.967593,34.8172505 -6.575907,1.357312 z m 7.549501,37.7260318 6.575905,-1.357313 0.415594,2.076562 -6.583968,1.317563 z"
   style="display:inline;stroke-width:0.0937538" />















</svg>
