<?xml version="1.0" encoding="UTF-8" standalone="no"?>
<!-- Created with Inkscape (http://www.inkscape.org/) -->

<svg
   width="48"
   height="48"
   viewBox="0 0 12.699999 12.7"
   version="1.1"
   id="svg825"
   inkscape:version="1.2.1 (9c6d41e410, 2022-07-14)"
   sodipodi:docname="parking.svg"
   xmlns:inkscape="http://www.inkscape.org/namespaces/inkscape"
   xmlns:sodipodi="http://sodipodi.sourceforge.net/DTD/sodipodi-0.dtd"
   xmlns="http://www.w3.org/2000/svg"
   xmlns:svg="http://www.w3.org/2000/svg">
  <sodipodi:namedview
     id="namedview827"
     pagecolor="#505050"
     bordercolor="#eeeeee"
     borderopacity="1"
     inkscape:pageshadow="0"
     inkscape:pageopacity="0"
     inkscape:pagecheckerboard="0"
     inkscape:document-units="mm"
     showgrid="false"
     fit-margin-top="0"
     fit-margin-left="0"
     fit-margin-right="0"
     fit-margin-bottom="0"
     inkscape:zoom="2.0056913"
     inkscape:cx="292.16859"
     inkscape:cy="153.06443"
     inkscape:window-width="1920"
     inkscape:window-height="1009"
     inkscape:window-x="-8"
     inkscape:window-y="-8"
     inkscape:window-maximized="1"
     inkscape:current-layer="layer1"
     inkscape:showpageshadow="0"
     inkscape:deskcolor="#505050" />
  <defs
     id="defs822" />
  <g
     inkscape:label="Calque 1"
     inkscape:groupmode="layer"
     id="layer1"
     transform="translate(96.03352,-18.006441)">
    <path
       id="path4896"
       d="m -94.60232,18.007823 c -0.909091,0 -1.420111,0.470043 -1.420111,1.430378 v 9.899585 c 0,0.898204 0.459448,1.36865 1.367791,1.36865 h 9.941595 c 0.908322,0 1.368436,-0.446914 1.368436,-1.36865 v -9.899585 c 0,-0.936913 -0.460089,-1.430378 -1.397001,-1.430378 0,0 -9.863746,-0.0031 -9.860667,0 z m 2.070631,1.953577 h 3.663852 c 1.602209,0 2.782576,1.43351 2.782576,2.909037 0,1.658951 -1.404489,2.898298 -2.859123,2.898298 h -1.921961 v 2.835799 h -1.665344 z m 1.684631,1.589313 v 2.613031 h 1.87209 c 0.674533,0 1.249406,-0.526937 1.249406,-1.285704 0,-0.758987 -0.617122,-1.327327 -1.228315,-1.327327 z"
       style="stroke-width:0.0219932" />
  </g>
</svg>
