<?xml version="1.0" encoding="UTF-8" standalone="no"?>
<!-- Generator: Adobe Illustrator 16.0.0, SVG Export Plug-In . SVG Version: 6.00 Build 0)  -->

<svg
   version="1.1"
   id="Capa_1"
   x="0px"
   y="0px"
   width="40.015114"
   height="48"
   viewBox="0 0 40.015114 48"
   xml:space="preserve"
   sodipodi:docname="pharmacy.svg"
   inkscape:version="1.2.1 (9c6d41e410, 2022-07-14)"
   xmlns:inkscape="http://www.inkscape.org/namespaces/inkscape"
   xmlns:sodipodi="http://sodipodi.sourceforge.net/DTD/sodipodi-0.dtd"
   xmlns="http://www.w3.org/2000/svg"
   xmlns:svg="http://www.w3.org/2000/svg"><defs
   id="defs47" /><sodipodi:namedview
   id="namedview45"
   pagecolor="#505050"
   bordercolor="#eeeeee"
   borderopacity="1"
   inkscape:pageshadow="0"
   inkscape:pageopacity="0"
   inkscape:pagecheckerboard="0"
   showgrid="false"
   fit-margin-top="0"
   fit-margin-left="0"
   fit-margin-right="0"
   fit-margin-bottom="0"
   inkscape:zoom="13.401505"
   inkscape:cx="9.5884753"
   inkscape:cy="25.295666"
   inkscape:window-width="1920"
   inkscape:window-height="1009"
   inkscape:window-x="-8"
   inkscape:window-y="-8"
   inkscape:window-maximized="1"
   inkscape:current-layer="Capa_1"
   inkscape:showpageshadow="0"
   inkscape:deskcolor="#505050" />
<path
   id="path8"
   d="m 11.035669,30.721104 v -5.581152 c -3.6416898,0.146473 -5.8033889,3.15676 -5.8033889,6.833755 0,2.343579 1.2576531,4.591193 3.2527261,5.818541 0.969757,0.601047 2.0657848,0.833385 3.1567608,1.106129 0,0 0,0 0.0051,0 4.939699,1.23745 9.960211,3.318387 13.854391,6.656977 0.525285,0.449523 1.166789,0.671759 1.808192,0.671759 0.782877,0 1.560703,-0.328303 2.111292,-0.969757 0.06566,-0.07576 0.121169,-0.151525 0.176779,-0.232338 0.09091,-0.131321 0.166677,-0.267693 0.232338,-0.409116 0.0202,-0.04546 0.04041,-0.09597 0.06061,-0.141473 0.04541,-0.111068 0.08081,-0.227287 0.111118,-0.338355 0.252541,-0.99001 -0.05561,-2.080936 -0.883893,-2.793152 C 25.68814,38.403397 21.596978,36.307308 17.349241,34.817317 16.025927,34.352642 14.682359,33.943475 13.32374,33.60002 12.82876,33.473749 12.323678,33.347479 11.823647,33.241412 9.6011862,32.751533 9.6011862,31.044407 11.035669,30.721104 Z M 19.556347,48 c 0.469776,0 0.823333,-0.419268 0.747571,-0.883893 -0.222236,-1.323314 -0.934401,-2.480002 -1.944564,-3.27798 -0.161627,-0.126271 -0.328303,-0.24244 -0.505082,-0.353557 -0.161626,-0.101017 -0.333405,-0.191932 -0.505082,-0.277795 V 42.171357 C 15.748081,41.504649 14.146972,41.14099 12.803455,40.757128 v 2.449647 c -0.171728,0.08081 -0.343506,0.176778 -0.505082,0.277795 -0.176778,0.106067 -0.343506,0.227286 -0.505081,0.353557 -1.010164,0.798029 -1.72238,1.954666 -1.9445648,3.27798 C 9.7729642,47.575731 10.126522,48 10.596248,48 Z M 12.813506,23.266149 v 8.404509 c 1.257653,0.303049 2.828458,0.732368 4.545735,1.323314 V 23.266099 C 24.112184,22.250834 29.410541,16.780849 30.163062,9.9470941 30.264079,9.0530995 29.556964,8.2702228 28.657919,8.2702228 H 18.283591 11.333617 1.5148283 c -0.90409618,0 -1.60615978,0.7828767 -1.50514338,1.6768713 C 0.76225662,16.780849 6.0555132,22.250884 12.813506,23.266149 Z M 24.834451,4.9467852 c 6.096336,0 10.334022,5.8538968 9.616755,11.6421328 -0.595996,4.783124 -4.843733,8.540932 -9.667264,8.540932 h -5.707423 v 5.555899 h 5.707423 c 6.727689,0 12.697754,-4.560888 14.601963,-10.985527 0.590945,-1.995073 0.772775,-4.111315 0.515183,-6.177149 C 39.72936,12.144199 39.370752,10.790581 38.840417,9.507673 37.092783,5.2801392 33.537059,1.860736 29.011476,0.5980318 25.63253,-0.34142015 21.950434,-0.17474319 18.682555,1.1031134 16.975379,1.7698213 15.379372,2.7345273 14.01055,3.9517742 13.172114,4.6942443 12.52566,5.5579341 11.929613,6.4923353 h 7.692445 c 1.489991,-0.9445028 3.313285,-1.5455501 5.212393,-1.5455501 z"
   style="stroke-width:0.0505082" />















</svg>
