<?xml version="1.0" encoding="UTF-8" standalone="no"?>
<!-- Generator: Adobe Illustrator 13.0.2, SVG Export Plug-In . SVG Version: 6.00 Build 14948)  -->

<svg
   version="1.1"
   id="Layer_1"
   x="0px"
   y="0px"
   width="48"
   height="48"
   viewBox="-0.258 -0.548 48.000001 47.999999"
   xml:space="preserve"
   sodipodi:docname="post_office.svg"
   inkscape:version="1.2.1 (9c6d41e410, 2022-07-14)"
   xmlns:inkscape="http://www.inkscape.org/namespaces/inkscape"
   xmlns:sodipodi="http://sodipodi.sourceforge.net/DTD/sodipodi-0.dtd"
   xmlns="http://www.w3.org/2000/svg"
   xmlns:svg="http://www.w3.org/2000/svg"><defs
   id="defs13" /><sodipodi:namedview
   id="namedview11"
   pagecolor="#505050"
   bordercolor="#eeeeee"
   borderopacity="1"
   inkscape:pageshadow="0"
   inkscape:pageopacity="0"
   inkscape:pagecheckerboard="0"
   showgrid="false"
   fit-margin-top="0"
   fit-margin-left="0"
   fit-margin-right="0"
   fit-margin-bottom="0"
   inkscape:zoom="6.4433093"
   inkscape:cx="34.609545"
   inkscape:cy="37.55834"
   inkscape:window-width="1920"
   inkscape:window-height="1009"
   inkscape:window-x="-8"
   inkscape:window-y="-8"
   inkscape:window-maximized="1"
   inkscape:current-layer="Layer_1"
   inkscape:showpageshadow="0"
   inkscape:deskcolor="#505050" />
<path
   style="display:inline;fill:#231f20;stroke-width:0.487038"
   d="M 44.245069,35.943786 31.794925,23.48244 44.244582,11.021093 v 24.922693 z m -38.883141,2.366516 12.472548,-12.449657 0.53282,0.509928 c 2.945116,2.80826 7.625062,2.80826 10.444523,0 l 0.536715,-0.532819 12.530019,12.472548 z M 3.1244768,11.021093 15.555627,23.48244 3.1020731,35.943786 Z M 41.855662,8.6428883 26.540275,23.946587 c -1.556085,1.567774 -4.341454,1.533194 -5.943321,-0.06088 L 5.3848187,8.6428883 Z M -0.258,5.241417 c 0,1.4270205 0,34.982944 0,36.421166 1.4499112,0 46.550089,0 48,0 0,-1.438222 0,-34.9946326 0,-36.421166 -1.449911,0 -46.5500888,0 -48,0 z"
   id="path6" />
</svg>
