<?xml version="1.0" encoding="UTF-8" standalone="no"?>
<svg
   version="1.1"
   viewBox="0 0 48 48"
   id="svg4"
   sodipodi:docname="restaurant.svg"
   width="48"
   height="48"
   inkscape:version="1.2.1 (9c6d41e410, 2022-07-14)"
   xmlns:inkscape="http://www.inkscape.org/namespaces/inkscape"
   xmlns:sodipodi="http://sodipodi.sourceforge.net/DTD/sodipodi-0.dtd"
   xmlns="http://www.w3.org/2000/svg"
   xmlns:svg="http://www.w3.org/2000/svg">
  <defs
     id="defs8" />
  <sodipodi:namedview
     id="namedview6"
     pagecolor="#505050"
     bordercolor="#eeeeee"
     borderopacity="1"
     inkscape:pageshadow="0"
     inkscape:pageopacity="0"
     inkscape:pagecheckerboard="0"
     showgrid="false"
     fit-margin-top="0"
     fit-margin-left="0"
     fit-margin-right="0"
     fit-margin-bottom="0"
     inkscape:zoom="9.95"
     inkscape:cx="-17.788945"
     inkscape:cy="32.361809"
     inkscape:window-width="1920"
     inkscape:window-height="1009"
     inkscape:window-x="-8"
     inkscape:window-y="-8"
     inkscape:window-maximized="1"
     inkscape:current-layer="svg4"
     inkscape:showpageshadow="0"
     inkscape:deskcolor="#505050" />
  <path
     d="M 1.5375723,47.611488 C 0.56890107,47.020816 0,46.007813 0,44.873542 0,43.625238 0.4275758,42.79364 1.6930233,41.580787 2.234153,41.062149 6.9390639,36.88023 12.148419,32.287675 c 5.209355,-4.592557 9.44637,-8.418831 9.415513,-8.502488 -0.187717,-0.510033 -2.587294,-3.059545 -3.247944,-3.450846 -0.770123,-0.456205 -0.85378,-0.465667 -3.046139,-0.344056 C 10.582321,20.250283 7.9269008,19.362927 4.8576533,16.510981 1.7402002,13.614293 0.1910394,10.330658 0.18966798,6.6164982 0.18904981,4.8126296 0.50169442,3.453171 1.1855277,2.2862261 1.5650008,1.6386738 1.9175597,1.3443319 2.8827681,0.8691677 3.9864903,0.32580941 4.2947522,0.2620039 6.1617749,0.19055269 8.6007844,0.09719641 9.8738775,0.3617373 12.092499,1.4229488 c 3.503303,1.6756747 6.426151,4.959413 7.580205,8.5165447 0.264839,0.8161005 0.332673,1.6878115 0.345667,4.4417005 0.01354,2.874985 0.06591,3.502274 0.32535,3.898273 0.367988,0.561598 3.433704,3.383201 3.676103,3.383201 0.09274,0 0.870374,-0.610935 1.728063,-1.357642 1.799377,-1.566509 2.103388,-2.155296 1.778669,-3.445017 -0.535199,-2.125468 -0.118903,-3.78856 1.336658,-5.340669 0.686947,-0.732444 14.586469,-11.25939324 15.154239,-11.47710684 0.127233,-0.04882613 0.31961,0.01889137 0.427507,0.15039724 0.150719,0.18377428 -1.124842,1.4363954 -5.507297,5.4085545 -3.136928,2.8430653 -6.098724,5.5186111 -6.581808,5.9458101 l -0.878432,0.776637 0.371588,0.374433 0.371587,0.374433 6.521123,-6.0208948 c 6.049352,-5.5851254 6.543065,-5.9989527 6.82455,-5.7174679 0.28145,0.2814334 -0.14952,0.7564091 -5.956439,6.5653509 -5.542611,5.5443248 -6.231066,6.2962088 -6.009581,6.5632938 0.222514,0.268117 0.949368,-0.397302 6.553694,-5.9999813 5.455868,-5.4541543 6.335637,-6.2629518 6.541351,-6.0150669 0.203999,0.2458073 -0.180171,0.7383063 -2.709558,3.4738178 -9.882483,10.6878514 -9.117914,9.7933404 -8.716429,10.1975674 0.359861,0.362399 0.363187,0.362399 0.709712,0 0.191485,-0.200255 2.881773,-3.16103 5.978381,-6.5794074 C 46.103903,4.9625812 47.641955,3.3785861 47.793841,3.5304714 47.907257,3.6438744 48,3.8068922 48,3.8927331 48,4.2389491 36.800264,18.877257 36.090209,19.459084 c -1.42539,1.168008 -2.890037,1.45491 -5.055756,0.990408 -0.754317,-0.161763 -1.033711,-0.1451 -1.532223,0.09146 -0.597221,0.283401 -3.009557,2.884345 -3.009557,3.244858 0,0.10056 4.565815,4.216787 10.14614,9.1474 5.580325,4.930612 10.352196,9.25437 10.604195,9.60854 0.611621,0.859609 0.749381,2.508575 0.290365,3.475875 -0.749072,1.578578 -2.852117,2.248519 -4.469129,1.423676 -0.860397,-0.438925 -1.267813,-0.88066 -11.474707,-12.440533 -4.101244,-4.645013 -7.51849,-8.445572 -7.593576,-8.445572 -0.07515,0 -4.078616,4.465357 -8.896772,9.922939 C 6.3131596,46.430222 5.330877,47.479019 4.4908796,47.798218 3.7050192,48.096983 2.175024,48.000503 1.5378946,47.612081 Z"
     stroke-width="0.325223"
     id="path2" />
</svg>
