<?xml version="1.0" encoding="UTF-8" standalone="no"?>
<svg
   class="svg-icon"
   style="overflow:hidden;fill:currentColor"
   viewBox="0 0 48 48"
   version="1.1"
   id="svg4"
   sodipodi:docname="school.svg"
   width="48"
   height="48"
   inkscape:version="1.2.1 (9c6d41e410, 2022-07-14)"
   xmlns:inkscape="http://www.inkscape.org/namespaces/inkscape"
   xmlns:sodipodi="http://sodipodi.sourceforge.net/DTD/sodipodi-0.dtd"
   xmlns="http://www.w3.org/2000/svg"
   xmlns:svg="http://www.w3.org/2000/svg">
  <defs
     id="defs8" />
  <sodipodi:namedview
     id="namedview6"
     pagecolor="#505050"
     bordercolor="#eeeeee"
     borderopacity="1"
     inkscape:pageshadow="0"
     inkscape:pageopacity="0"
     inkscape:pagecheckerboard="0"
     showgrid="false"
     fit-margin-top="0"
     fit-margin-left="0"
     fit-margin-right="0"
     fit-margin-bottom="0"
     inkscape:zoom="12.4375"
     inkscape:cx="27.819096"
     inkscape:cy="28.542714"
     inkscape:window-width="1920"
     inkscape:window-height="1009"
     inkscape:window-x="-8"
     inkscape:window-y="-8"
     inkscape:window-maximized="1"
     inkscape:current-layer="svg4"
     inkscape:showpageshadow="0"
     inkscape:deskcolor="#505050" />
  <path
     d="m 23.579821,33.322527 c 0.26767,0.124497 0.578913,0.124497 0.846583,0 L 38.86811,26.475166 v 9.810401 c 0,0.379717 -0.211645,0.722085 -0.547788,0.890157 l -13.875244,6.990533 c -0.280119,0.143172 -0.610037,0.143172 -0.883932,0 L 5.9945532,37.181949 C 5.6584101,37.013877 5.4467644,36.671509 5.4467644,36.291792 v -9.816626 z m 21.43224,-18.039684 v 27.146674 c 0,1.020879 -0.827908,1.848787 -1.848788,1.848787 -1.020879,0 -1.848787,-0.827908 -1.848787,-1.848787 V 16.042278 l -2.4526,0.572688 v 6.810012 L 24.003112,30.471535 5.4467644,23.424978 V 16.390871 L 0.6349371,14.840877 C 0.25521982,14.69148 0,14.324213 0,13.913371 0,13.502529 0.24899494,13.135262 0.6349371,12.985865 L 23.635845,3.7917263 c 0.236545,-0.093373 0.49799,-0.093373 0.72831,0 L 47.371288,12.985865 C 47.751005,13.135262 48,13.502529 48,13.913371 c 0,0.410842 -0.248995,0.778109 -0.628712,0.927506 z"
     id="path2"
     style="stroke-width:0.0622487" />
</svg>
