<?xml version="1.0" encoding="UTF-8" standalone="no"?>
<!-- Svg Vector Icons : http://www.onlinewebfonts.com/icon -->

<svg
   width="48"
   height="48"
   enable-background="new 0 0 1000 1000"
   version="1.1"
   viewBox="0 0 47.999999 48"
   xml:space="preserve"
   id="svg6"
   sodipodi:docname="social_facility.svg"
   inkscape:version="1.2.1 (9c6d41e410, 2022-07-14)"
   xmlns:inkscape="http://www.inkscape.org/namespaces/inkscape"
   xmlns:sodipodi="http://sodipodi.sourceforge.net/DTD/sodipodi-0.dtd"
   xmlns="http://www.w3.org/2000/svg"
   xmlns:svg="http://www.w3.org/2000/svg"><defs
   id="defs10" /><sodipodi:namedview
   id="namedview8"
   pagecolor="#505050"
   bordercolor="#eeeeee"
   borderopacity="1"
   inkscape:showpageshadow="0"
   inkscape:pageopacity="0"
   inkscape:pagecheckerboard="0"
   inkscape:deskcolor="#505050"
   showgrid="false"
   inkscape:zoom="4.727351"
   inkscape:cx="46.960761"
   inkscape:cy="12.480563"
   inkscape:window-width="1920"
   inkscape:window-height="1009"
   inkscape:window-x="3832"
   inkscape:window-y="-8"
   inkscape:window-maximized="1"
   inkscape:current-layer="svg6" />
<metadata
   id="metadata2"> Svg Vector Icons : http://www.onlinewebfonts.com/icon </metadata>
<path
   d="m 37.755561,13.151613 h -4.049786 c -0.01959,0 -1.356458,-0.120968 -1.356458,-0.120968 L 30.654969,7.1903225 C 29.97429,4.8387097 27.976331,4.9112903 27.976331,4.9112903 H 22.48684 c 0,0 -1.993063,-0.072581 -2.678637,2.2790322 L 18.970822,10.064516 18.133442,7.1903225 C 17.447867,4.8387097 15.454805,4.9112903 15.454805,4.9112903 h -4.245664 c 0,0 -1.9979593,-0.072581 -2.6786374,2.2790322 L 6.8214651,13.074193 c -0.1616002,0.551613 0.1420119,0.967742 0.6317075,1.108065 0.4847993,0.135484 0.9842886,-0.106451 1.1116096,-0.541936 L 10.229749,7.9016127 h 0.812896 L 8.6137523,17.835484 h 2.1497647 v 7.054839 c 0,0.580645 0.475006,1.054838 1.06264,1.054838 0.587636,0 1.067539,-0.474193 1.067539,-1.054838 v -7.054839 h 0.90104 v 7.054839 c 0,0.580645 0.475005,1.054838 1.062641,1.054838 0.592531,0 1.072433,-0.474193 1.072433,-1.054838 v -7.054839 h 2.110589 L 15.635992,7.9016127 h 0.807999 l 1.645379,5.6758063 c 0.02938,0.09677 0.07345,0.183872 0.127321,0.26129 0.1616,0.241936 0.440726,0.372581 0.754131,0.362904 0.313406,0.0097 0.592533,-0.120968 0.754132,-0.358065 0.06855,-0.0871 0.112631,-0.18387 0.142012,-0.295161 L 21.50255,7.9064518 h 0.749234 V 24.691936 c 0,0.687096 0.568049,1.238709 1.258519,1.238709 0.695369,0 1.253623,-0.556451 1.253623,-1.238709 v -9.551614 h 0.930421 v 9.551614 c 0,0.687096 0.563151,1.238709 1.253622,1.238709 0.695369,0 1.263416,-0.556451 1.263416,-1.238709 V 7.9064518 h 0.812895 l 1.596409,5.7387102 c 0.08815,0.280645 0.3232,0.469355 0.61212,0.541935 0.01469,0.0048 0.01959,0.0097 0.02938,0.0097 0.254642,0.05807 1.425015,0.387096 2.28688,0.629033 v 10.408068 c 0,0.479033 0.396654,0.870968 0.88635,0.870968 0.484799,0 0.881453,-0.391935 0.881453,-0.870968 v -5.201613 h 0.690471 v 5.201613 c 0,0.479033 0.396654,0.870968 0.881453,0.870968 0.484799,0 0.88635,-0.391935 0.88635,-0.870968 v -9.725804 h 0.670884 v 3.295162 c 0,0.362904 0.298713,0.653226 0.656192,0.653226 0.362375,0 0.651296,-0.290322 0.651296,-0.653226 v -3.750001 c 0,-1.049999 -0.93532,-1.901612 -1.997959,-1.901612 z m -2.17425,-0.730645 c 0.827585,0 1.498469,-0.662904 1.498469,-1.485485 0,-0.817741 -0.670884,-1.4854831 -1.498469,-1.4854831 -0.832485,0 -1.503368,0.6629031 -1.503368,1.4854831 0,0.822581 0.670883,1.485485 1.503368,1.485485 z M 13.339319,4.2580646 c -1.199756,0 -2.169353,-0.9483871 -2.169353,-2.1290323 C 11.169966,0.9532258 12.139563,0 13.339319,0 c 1.199755,0 2.17425,0.9532258 2.17425,2.1290323 0,1.1806452 -0.974496,2.1290323 -2.17425,2.1290323 z m 11.610691,-0.00968 c 1.185064,0 2.139971,-0.9483872 2.139971,-2.1145163 0,-1.1661289 -0.959804,-2.114516 -2.139971,-2.114516 -1.180168,0 -2.139973,0.9483871 -2.139973,2.114516 0,1.1661291 0.954909,2.1145163 2.139973,2.1145163 z M 5.0095897,26.782258 v -9.585483 c 0,-1.359678 -1.1263007,-2.467743 -2.5121404,-2.467743 -1.3809426,0 -2.49744955,1.108065 -2.49744955,2.467743 v 13.12258 c 0,1.814516 0.6610895,3.566129 1.84615395,4.935484 l 8.2807583,8.690322 c 0.82269,0.764517 1.023466,1.441936 1.023466,2.467742 V 48 h 9.015303 l 0.0098,-3.764515 c 0,-1.432258 0.117526,-3.348388 -1.699246,-5.230646 L 7.9771473,28.577419 C 7.6049786,28.219354 7.1103857,28.025807 6.5913077,28.025807 c -1.096919,0 -1.9930626,0.880645 -1.9930626,1.964516 0,0.469355 0.1664967,0.924194 0.4750051,1.282259 l 5.0683528,5.366128 c 0.328097,0.382258 0.88635,1.098388 1.16058,1.974194 0.151806,0.454837 0.190982,0.9 0.200775,1.412902 H 9.8722705 C 9.8673815,39.662903 9.8379919,39.367742 9.7498472,39.096775 9.5931447,38.58871 9.2748418,38.133871 9.0348907,37.843548 L 3.883289,32.264517 C 3.2368903,31.620968 2.8794122,30.783872 2.8794122,29.908065 c 0.0049,-1.31613 0.8031015,-2.530646 2.1301775,-3.125807 z m 37.9808213,0 v -9.585483 c 0,-1.359678 1.1263,-2.467743 2.512139,-2.467743 1.380943,0 2.49745,1.108065 2.49745,2.467743 v 13.12258 c 0,1.814516 -0.66109,3.566129 -1.846154,4.935484 L 37.86819,43.95 c -0.822688,0.764516 -1.023465,1.441935 -1.023465,2.467743 V 48 h -9.015302 l -0.0098,-3.764515 c 0,-1.432258 -0.117527,-3.348388 1.699245,-5.230646 l 10.508881,-10.42742 c 0.37217,-0.358065 0.866763,-0.551612 1.385841,-0.551612 1.096918,0 1.993061,0.880645 1.993061,1.964516 0,0.469355 -0.166497,0.924194 -0.475003,1.282259 l -5.068355,5.366128 c -0.328097,0.382258 -0.886349,1.098388 -1.16058,1.974194 -0.146908,0.454837 -0.190982,0.9 -0.200775,1.412902 h 1.630688 c 0.0049,-0.362903 0.03428,-0.658064 0.122424,-0.929031 0.161599,-0.508065 0.475006,-0.962904 0.714956,-1.253227 l 5.146705,-5.579031 c 0.646399,-0.643549 1.003877,-1.480645 1.003877,-2.356452 0,-1.31613 -0.803102,-2.530646 -2.130177,-3.125807 z"
   id="path4"
   style="stroke-width:0.0486775" />
</svg>
