<?xml version="1.0" encoding="UTF-8" standalone="no"?>
<!-- Created with Inkscape (http://www.inkscape.org/) -->

<svg
   width="48"
   height="48"
   viewBox="0 0 12.7 12.7"
   version="1.1"
   id="svg975"
   inkscape:version="1.2.1 (9c6d41e410, 2022-07-14)"
   sodipodi:docname="toilets.svg"
   xmlns:inkscape="http://www.inkscape.org/namespaces/inkscape"
   xmlns:sodipodi="http://sodipodi.sourceforge.net/DTD/sodipodi-0.dtd"
   xmlns="http://www.w3.org/2000/svg"
   xmlns:svg="http://www.w3.org/2000/svg">
  <sodipodi:namedview
     id="namedview977"
     pagecolor="#505050"
     bordercolor="#eeeeee"
     borderopacity="1"
     inkscape:pageshadow="0"
     inkscape:pageopacity="0"
     inkscape:pagecheckerboard="0"
     inkscape:document-units="mm"
     showgrid="false"
     fit-margin-top="0"
     fit-margin-left="0"
     fit-margin-right="0"
     fit-margin-bottom="0"
     inkscape:zoom="0.70911897"
     inkscape:cx="238.3239"
     inkscape:cy="329.98694"
     inkscape:window-width="1920"
     inkscape:window-height="1009"
     inkscape:window-x="-8"
     inkscape:window-y="-8"
     inkscape:window-maximized="1"
     inkscape:current-layer="layer1"
     inkscape:showpageshadow="0"
     inkscape:deskcolor="#505050" />
  <defs
     id="defs972" />
  <g
     inkscape:label="Calque 1"
     inkscape:groupmode="layer"
     id="layer1"
     transform="translate(21.208096,60.383491)">
    <path
       id="rect10"
       d="m -15.109569,-59.749658 c 0.360199,0 0.720397,0 1.080596,0 0,3.825407 0,7.650814 0,11.476222 -0.360199,0 -0.720397,0 -1.080596,0 0,-3.825408 0,-7.650815 0,-11.476222 z m 3.358301,2.044121 c -0.759478,-0.02436 -1.287684,0.753806 -1.197266,1.462063 0.0052,0.937914 -0.01052,1.876668 0.008,2.814047 0.106115,0.574289 0.977027,0.297344 0.8096,-0.2379 0,-0.849645 0,-1.69929 0,-2.548935 0.312144,-0.09494 0.177253,0.257153 0.204411,0.447199 0.0066,2.368499 -0.01333,4.737983 0.01006,7.105863 0.115874,0.740691 1.265895,0.423936 1.070402,-0.273485 0,-1.39474 0,-2.789481 0,-4.184221 0.296426,-0.08896 0.135302,0.279636 0.175209,0.447198 0.0097,1.335435 -0.01951,2.673043 0.01487,4.007095 0.13765,0.731757 1.2915169,0.446771 1.0947889,-0.270072 0,-2.426525 0,-4.853051 0,-7.279577 0.312144,-0.09494 0.177254,0.257153 0.204412,0.447199 0.0049,0.780045 -0.0099,1.560821 0.0075,2.340406 0.102542,0.579899 0.976032,0.296406 0.810159,-0.23867 -0.0049,-0.966365 0.01,-1.933382 -0.0077,-2.89933 -0.05689,-0.716873 -0.761606,-1.234518 -1.4595849,-1.13888 -0.581636,0 -1.163273,0 -1.74491,0 z m 1.9565029,-1.211862 c 0.06039,1.224885 -1.9584899,1.224885 -1.8980989,0 0.03106,-1.303306 1.9037849,-1.197426 1.8980989,0 z m -8.8480779,6.964551 c -0.0071,1.134873 0.0143,2.271214 -0.0109,3.405153 -0.122635,0.593598 -1.058555,0.331191 -0.894352,-0.242982 0,-1.054057 0,-2.108114 0,-3.162171 -0.389355,0 -0.778709,0 -1.168064,0 0.418556,-1.469807 0.837113,-2.939614 1.255669,-4.409421 -0.285642,-0.09117 -0.249036,0.246931 -0.329244,0.429422 -0.219254,0.72427 -0.406888,1.459884 -0.646085,2.177 -0.291122,0.543443 -1.004408,-0.02751 -0.678695,-0.489666 0.278829,-0.902475 0.531691,-1.813893 0.827232,-2.710611 0.239223,-0.553967 0.852948,-0.813785 1.428407,-0.749413 0.607223,0.0364 1.308563,-0.146088 1.794509,0.327871 0.46971,0.430889 0.504584,1.101422 0.715217,1.668111 0.163947,0.568215 0.354674,1.129802 0.501242,1.702317 0.09345,0.605824 -0.826892,0.6082 -0.818437,0.02416 -0.230543,-0.793065 -0.461086,-1.58613 -0.69163,-2.379195 -0.343004,-0.09568 -0.168863,0.19661 -0.118129,0.396316 0.389796,1.337701 0.779592,2.675403 1.169388,4.013105 -0.399089,0 -0.798178,0 -1.197267,0 -0.0054,1.134935 0.01094,2.270732 -0.0083,3.40512 -0.112586,0.595425 -1.03959,0.323434 -0.867712,-0.24295 0,-1.054056 0,-2.108113 0,-3.16217 -0.0876,0 -0.175209,0 -0.262814,0 z m 1.080457,-6.964551 c 0.06039,1.224885 -1.95849,1.224885 -1.8981,0 0.03106,-1.303306 1.903786,-1.197426 1.8981,0 z"
       style="fill:#000000;fill-opacity:1;stroke:#000000;stroke-width:0.0203898;stroke-opacity:1" />
  </g>
</svg>
